<svg xmlns="http://www.w3.org/2000/svg" xmlns:xlink="http://www.w3.org/1999/xlink" width="500" zoomAndPan="magnify" viewBox="0 0 375 525.000007" height="700" preserveAspectRatio="xMidYMid meet" version="1.0"><defs><clipPath id="8d2cfccd82"><path d="M 23 53.980469 L 306 53.980469 L 306 240 L 23 240 Z M 23 53.980469 " clip-rule="nonzero"/></clipPath><clipPath id="e752e28f3a"><path d="M 131 153.238281 L 374.640625 153.238281 L 374.640625 524 L 131 524 Z M 131 153.238281 " clip-rule="nonzero"/></clipPath><clipPath id="3cfe08082a"><path d="M 139 157 L 374.640625 157 L 374.640625 524 L 139 524 Z M 139 157 " clip-rule="nonzero"/></clipPath><clipPath id="f0ad7b16d8"><path d="M 144 159 L 374.640625 159 L 374.640625 524 L 144 524 Z M 144 159 " clip-rule="nonzero"/></clipPath></defs><g clip-path="url(#8d2cfccd82)"><path fill="#0d0d0d" d="M 70.710938 210.339844 C 72.265625 210.871094 73.074219 211.175781 73.5 211.34375 L 74.769531 219.839844 L 74.769531 223.742188 C 74.769531 223.832031 74.777344 223.925781 74.777344 224.023438 C 74.777344 224.023438 74.792969 224.34375 74.792969 224.441406 C 74.921875 228.871094 77.097656 233.570312 80.765625 237.339844 C 81.332031 237.917969 81.992188 238.621094 82.714844 239.429688 L 82.714844 93.617188 C 82.714844 87 88.074219 81.636719 94.695312 81.636719 L 284.515625 81.636719 C 291.128906 81.636719 296.496094 87 296.496094 93.617188 L 296.496094 157.632812 C 299.023438 159.214844 302.203125 161.171875 305.710938 163.3125 L 305.710938 81.328125 C 305.710938 66.230469 293.472656 53.984375 278.371094 53.984375 L 100.835938 53.984375 C 85.738281 53.984375 73.5 66.230469 73.5 81.328125 L 73.5 150.007812 L 73.5 150 C 73.5 150 39.15625 127.96875 26.527344 151.921875 C 13.898438 175.875 48.5 201.628906 70.710938 210.339844 " fill-opacity="1" fill-rule="nonzero"/></g><path fill="#0d0d0d" d="M 82.714844 315.828125 L 82.714844 300.5 C 80.363281 301.910156 77.761719 302.960938 74.917969 303.644531 C 75.570312 306.859375 77.171875 309.875 79.570312 312.339844 C 80.429688 313.21875 81.519531 314.394531 82.714844 315.828125 " fill-opacity="1" fill-rule="nonzero"/><path fill="#0d0d0d" d="M 79.59375 383.785156 C 80.542969 384.761719 81.609375 385.933594 82.714844 387.265625 L 82.714844 370.574219 C 80.40625 372.191406 77.8125 373.414062 74.933594 374.210938 C 75.351562 377.726562 76.96875 381.089844 79.59375 383.785156 " fill-opacity="1" fill-rule="nonzero"/><path fill="#0d0d0d" d="M 305.710938 467.179688 L 305.710938 247.835938 L 305.390625 247.609375 C 303.125 246.039062 300.03125 243.890625 296.496094 241.199219 L 296.496094 454.890625 C 296.496094 461.511719 291.128906 466.871094 284.515625 466.871094 L 94.695312 466.871094 C 88.074219 466.871094 82.714844 461.511719 82.714844 454.890625 L 82.714844 439.769531 C 80.042969 441.683594 76.960938 443.039062 73.5 443.804688 L 73.5 467.179688 C 73.5 482.277344 85.738281 494.523438 100.835938 494.523438 L 278.371094 494.523438 C 293.472656 494.523438 305.710938 482.277344 305.710938 467.179688 " fill-opacity="1" fill-rule="nonzero"/><path fill="#0d0d0d" d="M 82.714844 430.125 C 83.8125 428.609375 84.777344 426.8125 85.5625 424.6875 C 89.113281 415.09375 86.503906 406.128906 82.714844 399.304688 C 80.023438 394.460938 76.75 390.695312 74.675781 388.5625 C 74.265625 388.140625 73.878906 387.703125 73.5 387.253906 C 70.628906 383.84375 68.738281 379.699219 68.164062 375.296875 C 67.808594 375.304688 67.460938 375.324219 67.113281 375.324219 L 67.109375 375.324219 C 63.660156 375.316406 60.289062 374.632812 57.023438 373.265625 C 46.5 375.007812 33.34375 380.441406 34.15625 398.714844 C 34.847656 414.207031 42.59375 419.539062 48.203125 426.429688 C 53.640625 433.105469 60.640625 438.425781 69.210938 437.5625 C 70.636719 437.421875 72.082031 437.152344 73.5 436.710938 C 76.90625 435.667969 80.164062 433.660156 82.714844 430.125 " fill-opacity="1" fill-rule="nonzero"/><path fill="#0d0d0d" d="M 58.046875 366.179688 C 61.378906 367.890625 65.03125 368.765625 69.007812 368.371094 C 70.5 368.21875 72.011719 367.933594 73.5 367.480469 C 73.945312 367.34375 74.390625 367.1875 74.828125 367.019531 C 77.722656 365.898438 80.457031 364.050781 82.714844 361.140625 C 84.023438 359.449219 85.175781 357.398438 86.09375 354.921875 C 89.929688 344.5625 86.878906 334.90625 82.714844 327.695312 C 79.960938 322.9375 76.726562 319.238281 74.660156 317.125 C 74.253906 316.710938 73.871094 316.277344 73.5 315.832031 C 70.75 312.589844 68.871094 308.691406 68.109375 304.53125 C 67.96875 304.539062 67.828125 304.539062 67.6875 304.539062 C 63.320312 304.539062 59.078125 303.5 54.984375 301.4375 C 44.234375 303.480469 31.574219 309.445312 32.394531 327.789062 C 33.117188 343.972656 41.207031 349.542969 47.066406 356.734375 C 50.21875 360.613281 53.882812 364.046875 58.046875 366.179688 " fill-opacity="1" fill-rule="nonzero"/><path fill="#0d0d0d" d="M 56.199219 294.273438 C 60.242188 296.726562 64.753906 298.082031 69.738281 297.582031 C 70.992188 297.453125 72.25 297.238281 73.5 296.925781 C 73.859375 296.835938 74.214844 296.734375 74.574219 296.625 C 77.46875 295.738281 80.273438 294.238281 82.714844 291.851562 C 84.917969 289.691406 86.824219 286.820312 88.234375 283.023438 C 92.933594 270.3125 88.0625 258.578125 82.714844 250.578125 C 80.226562 246.863281 77.636719 243.945312 75.855469 242.121094 C 75.023438 241.261719 74.230469 240.351562 73.5 239.394531 C 70.230469 235.128906 68.097656 229.976562 67.945312 224.640625 C 67.933594 224.363281 67.917969 224.023438 67.917969 223.742188 C 59.808594 224.15625 28.785156 223.910156 30.113281 253.664062 C 30.898438 271.175781 39.65625 277.207031 45.996094 284.988281 C 48.976562 288.660156 52.378906 291.957031 56.199219 294.273438 " fill-opacity="1" fill-rule="nonzero"/><path fill="#0d0d0d" d="M 262.203125 378.429688 L 117.007812 378.429688 C 108.546875 378.429688 101.6875 371.570312 101.6875 363.105469 L 101.6875 181.457031 C 101.6875 173 108.546875 166.136719 117.007812 166.136719 L 262.203125 166.136719 C 270.664062 166.136719 277.523438 173 277.523438 181.457031 L 277.523438 363.105469 C 277.523438 371.570312 270.664062 378.429688 262.203125 378.429688 " fill-opacity="1" fill-rule="nonzero"/><path fill="#ffffff" d="M 260.492188 370.179688 L 117.527344 370.179688 C 113.015625 370.179688 109.363281 366.523438 109.363281 362.015625 L 109.363281 219.027344 C 109.363281 214.515625 113.015625 210.855469 117.527344 210.855469 L 260.492188 210.855469 C 265.003906 210.855469 268.65625 214.515625 268.65625 219.027344 L 268.65625 362.015625 C 268.65625 366.523438 265.003906 370.179688 260.492188 370.179688 " fill-opacity="1" fill-rule="nonzero"/><path fill="#0d0d0d" d="M 157.972656 228.183594 L 157.972656 259.472656 L 126.691406 259.472656 L 126.691406 228.183594 Z M 164.640625 221.515625 L 120.019531 221.515625 L 120.019531 266.144531 L 164.640625 266.144531 L 164.640625 221.515625 " fill-opacity="1" fill-rule="nonzero"/><path fill="#0d0d0d" d="M 151.988281 234.167969 L 132.667969 234.167969 L 132.667969 253.492188 L 151.988281 253.492188 L 151.988281 234.167969 " fill-opacity="1" fill-rule="nonzero"/><path fill="#0d0d0d" d="M 153.132812 326.402344 L 133.128906 326.402344 L 133.128906 346.414062 L 153.132812 346.414062 L 153.132812 326.402344 " fill-opacity="1" fill-rule="nonzero"/><path fill="#0d0d0d" d="M 251.324219 228.195312 L 251.324219 259.527344 L 219.996094 259.527344 L 219.996094 228.195312 Z M 213.316406 221.515625 L 213.316406 266.210938 L 258 266.210938 L 258 221.515625 L 213.316406 221.515625 " fill-opacity="1" fill-rule="nonzero"/><path fill="#0d0d0d" d="M 245.335938 234.1875 L 225.988281 234.1875 L 225.988281 253.539062 L 245.335938 253.539062 L 245.335938 234.1875 " fill-opacity="1" fill-rule="nonzero"/><path fill="#0d0d0d" d="M 185.90625 241.523438 L 198.671875 241.523438 L 198.671875 254.292969 L 185.90625 254.292969 Z M 192.457031 234.625 L 192.457031 228.414062 L 198.671875 228.414062 L 198.671875 234.625 Z M 224.886719 332.960938 L 212.121094 332.960938 L 212.121094 326.402344 L 205.222656 326.402344 L 205.222656 339.511719 L 199.011719 339.511719 L 199.011719 326.402344 L 192.457031 326.402344 L 192.457031 320.1875 L 199.011719 320.1875 L 199.011719 313.636719 L 205.222656 313.636719 L 205.222656 320.1875 L 212.121094 320.1875 L 212.121094 313.292969 L 205.570312 313.292969 L 205.570312 300.527344 L 218.335938 300.527344 L 218.335938 313.636719 L 224.886719 313.636719 L 224.886719 319.84375 L 218.335938 319.84375 L 218.335938 326.746094 L 224.886719 326.746094 Z M 159.6875 280.859375 L 165.898438 280.859375 L 165.898438 287.070312 L 159.6875 287.070312 Z M 192.113281 313.636719 L 192.113281 319.84375 L 185.90625 319.84375 L 185.90625 313.636719 Z M 179.007812 293.96875 L 179.007812 306.734375 L 172.796875 306.734375 L 172.796875 293.96875 Z M 185.5625 307.078125 L 185.5625 313.292969 L 179.347656 313.292969 L 179.347656 307.078125 Z M 218.335938 346.070312 L 205.570312 346.070312 L 205.570312 339.855469 L 218.335938 339.855469 Z M 218.335938 293.625 L 205.570312 293.625 L 205.570312 287.410156 L 218.335938 287.410156 Z M 237.992188 332.960938 L 231.785156 332.960938 L 231.785156 326.746094 L 237.992188 326.746094 Z M 231.785156 313.636719 L 237.992188 313.636719 L 237.992188 319.84375 L 231.785156 319.84375 Z M 244.550781 313.292969 L 238.339844 313.292969 L 238.339844 307.078125 L 244.550781 307.078125 Z M 146.234375 287.070312 L 140.027344 287.070312 L 140.027344 280.859375 L 146.234375 280.859375 Z M 126.914062 293.597656 L 126.914062 280.859375 L 133.128906 280.859375 L 133.128906 287.410156 L 139.679688 287.410156 L 139.679688 300.179688 L 133.5 300.179688 L 133.5 293.597656 Z M 198.671875 287.410156 L 198.671875 293.625 L 192.113281 293.625 L 192.113281 300.527344 L 198.671875 300.527344 L 198.671875 313.292969 L 192.457031 313.292969 L 192.457031 306.734375 L 185.90625 306.734375 L 185.90625 287.070312 L 172.796875 287.070312 L 172.796875 280.859375 L 179.347656 280.859375 L 179.347656 274.300781 L 185.90625 274.300781 L 185.90625 267.402344 L 179.347656 267.402344 L 179.347656 254.632812 L 185.5625 254.632812 L 185.5625 261.191406 L 198.671875 261.191406 L 198.671875 267.746094 L 205.570312 267.746094 L 205.570312 260.847656 L 199.011719 260.847656 L 199.011719 254.632812 L 205.570312 254.632812 L 205.570312 228.074219 L 199.011719 228.074219 L 199.011719 221.515625 L 185.5625 221.515625 L 185.5625 228.074219 L 179.007812 228.074219 L 179.007812 234.972656 L 185.5625 234.972656 L 185.5625 241.183594 L 172.457031 241.183594 L 172.457031 248.082031 L 179.007812 248.082031 L 179.007812 254.292969 L 172.457031 254.292969 L 172.457031 267.746094 L 179.007812 267.746094 L 179.007812 273.960938 L 159.34375 273.960938 L 159.34375 280.515625 L 146.578125 280.515625 L 146.578125 273.960938 L 120.019531 273.960938 L 120.019531 293.96875 L 126.601562 293.96875 L 126.601562 300.492188 L 133.128906 300.492188 L 133.128906 307.078125 L 153.132812 307.078125 L 153.132812 293.96875 L 165.898438 293.96875 L 165.898438 300.179688 L 159.34375 300.179688 L 159.34375 307.078125 L 172.457031 307.078125 L 172.457031 320.1875 L 185.5625 320.1875 L 185.5625 332.925781 L 179.347656 332.925781 L 179.347656 326.402344 L 172.457031 326.402344 L 172.457031 333.304688 L 179.0625 333.304688 L 179.0625 339.511719 L 172.457031 339.511719 L 172.457031 359.523438 L 179.347656 359.523438 L 179.347656 339.828125 L 185.960938 339.828125 L 185.960938 333.304688 L 192.113281 333.304688 L 192.113281 339.855469 L 198.671875 339.855469 L 198.671875 346.070312 L 192.113281 346.070312 L 192.113281 352.621094 L 185.5625 352.621094 L 185.5625 359.523438 L 192.457031 359.523438 L 192.457031 352.964844 L 198.671875 352.964844 L 198.671875 359.523438 L 205.570312 359.523438 L 205.570312 352.964844 L 218.335938 352.964844 L 218.335938 359.523438 L 225.226562 359.523438 L 225.226562 352.621094 L 218.675781 352.621094 L 218.675781 346.414062 L 225.226562 346.414062 L 225.226562 333.304688 L 231.441406 333.304688 L 231.441406 339.855469 L 237.992188 339.855469 L 237.992188 352.964844 L 244.550781 352.964844 L 244.550781 359.523438 L 251.449219 359.523438 L 251.449219 352.621094 L 244.890625 352.621094 L 244.890625 339.511719 L 238.339844 339.511719 L 238.339844 333.304688 L 251.449219 333.304688 L 251.449219 326.402344 L 244.890625 326.402344 L 244.890625 320.1875 L 251.449219 320.1875 L 251.449219 306.734375 L 244.890625 306.734375 L 244.890625 300.527344 L 258 300.527344 L 258 293.625 L 251.449219 293.625 L 251.449219 287.070312 L 244.890625 287.070312 L 244.890625 280.859375 L 251.449219 280.859375 L 251.449219 273.960938 L 244.550781 273.960938 L 244.550781 280.515625 L 238.339844 280.515625 L 238.339844 273.960938 L 231.441406 273.960938 L 231.441406 280.859375 L 237.992188 280.859375 L 237.992188 287.070312 L 231.441406 287.070312 L 231.441406 293.96875 L 237.992188 293.96875 L 237.992188 306.734375 L 231.441406 306.734375 L 231.441406 313.292969 L 225.226562 313.292969 L 225.226562 300.179688 L 218.675781 300.179688 L 218.675781 293.96875 L 225.226562 293.96875 L 225.226562 287.070312 L 218.675781 287.070312 L 218.675781 280.859375 L 225.226562 280.859375 L 225.226562 273.960938 L 218.335938 273.960938 L 218.335938 280.515625 L 212.121094 280.515625 L 212.121094 273.960938 L 205.222656 273.960938 L 205.222656 280.515625 L 199.011719 280.515625 L 199.011719 273.960938 L 192.113281 273.960938 L 192.113281 287.410156 L 198.671875 287.410156 " fill-opacity="1" fill-rule="nonzero"/><path fill="#0d0d0d" d="M 126.914062 352.621094 L 126.914062 320.1875 L 159.34375 320.1875 L 159.34375 352.621094 Z M 120.019531 359.523438 L 166.242188 359.523438 L 166.242188 313.292969 L 120.019531 313.292969 L 120.019531 359.523438 " fill-opacity="1" fill-rule="nonzero"/><path fill="#ffffff" d="M 136.84375 195.605469 C 136.359375 201.945312 129.992188 202.515625 126.3125 202.136719 C 122.886719 201.78125 119.621094 200.28125 117.769531 198.902344 L 120.582031 194.261719 C 123.109375 197.140625 129.699219 198.132812 130.21875 195.667969 C 131.078125 191.636719 118.339844 193.777344 119.429688 184.851562 C 119.847656 181.523438 122.28125 178.355469 129.128906 178.738281 C 133.476562 178.996094 135.621094 180.527344 136.105469 180.910156 L 133.925781 185.714844 C 131.882812 183.761719 126.148438 182.640625 125.605469 185.265625 C 124.871094 188.722656 137.414062 187.542969 136.84375 195.605469 " fill-opacity="1" fill-rule="nonzero"/><path fill="#ffffff" d="M 150.664062 196.054688 L 153.511719 199.667969 C 152.011719 201.207031 149.675781 202.136719 147.371094 202.136719 C 142.566406 202.136719 138.792969 198.484375 138.792969 193.96875 C 138.792969 189.457031 142.441406 185.777344 147.371094 185.777344 C 149.675781 185.777344 151.976562 186.738281 153.511719 188.246094 L 150.472656 191.761719 C 149.484375 191.027344 148.554688 190.582031 147.371094 190.644531 C 145.605469 190.710938 143.910156 191.761719 143.910156 193.96875 C 143.910156 195.988281 145.605469 197.207031 147.371094 197.300781 C 148.714844 197.363281 149.769531 196.792969 150.664062 196.054688 " fill-opacity="1" fill-rule="nonzero"/><path fill="#ffffff" d="M 164.617188 196.472656 C 164.617188 195.988281 164.617188 194.808594 164.617188 194.808594 C 164.617188 194.808594 162.472656 194.707031 161.546875 195.378906 C 160.394531 196.179688 160.777344 198.101562 162.636719 198.101562 C 164.167969 198.101562 164.617188 197.113281 164.617188 196.472656 Z M 169.996094 191.796875 C 169.996094 196.339844 169.996094 201.652344 169.996094 201.652344 L 164.617188 201.652344 L 164.617188 200.152344 C 163.65625 201.433594 162.089844 202.136719 160.105469 202.136719 C 159.207031 202.136719 155.59375 201.5625 155.464844 197.621094 C 155.371094 194.289062 157.613281 192.789062 159.847656 192.402344 C 161.292969 192.148438 163.527344 192.019531 164.617188 191.988281 C 164.617188 191.347656 164.265625 189.96875 162.375 189.96875 C 160.296875 189.96875 158.410156 190.835938 157.675781 191.222656 L 156.203125 187.734375 C 157.355469 186.929688 160.039062 185.777344 163.050781 185.777344 C 166.472656 185.777344 169.996094 187.058594 169.996094 191.796875 " fill-opacity="1" fill-rule="nonzero"/><path fill="#ffffff" d="M 188.8125 191.796875 L 188.8125 201.652344 L 183.40625 201.652344 L 183.433594 192.46875 C 183.433594 190.710938 182.089844 190.035156 181.128906 190.035156 C 180.167969 190.035156 178.636719 190.644531 178.601562 192.375 L 178.601562 201.652344 L 173.199219 201.652344 L 173.199219 186.289062 L 178.601562 186.289062 L 178.601562 187.761719 C 179.527344 186.703125 181.257812 185.777344 182.957031 185.777344 C 186.859375 185.777344 188.8125 188.019531 188.8125 191.796875 " fill-opacity="1" fill-rule="nonzero"/><path fill="#ffffff" d="M 229.328125 191.796875 L 229.328125 201.652344 L 223.953125 201.652344 L 223.953125 192.46875 C 223.953125 190.710938 223.085938 190.035156 222.160156 190.035156 C 221.167969 190.035156 220.144531 190.675781 220.078125 192.375 L 220.078125 201.652344 L 214.707031 201.652344 L 214.707031 192.46875 C 214.707031 190.710938 213.839844 190.035156 212.914062 190.035156 C 211.917969 190.035156 210.863281 190.675781 210.828125 192.375 L 210.828125 201.652344 L 205.421875 201.652344 L 205.421875 186.289062 L 210.828125 186.289062 L 210.828125 187.761719 C 211.660156 186.703125 213.132812 185.777344 214.707031 185.777344 C 217.234375 185.777344 218.445312 186.738281 219.339844 188.402344 C 220.109375 187.121094 222.386719 185.777344 223.953125 185.777344 C 227.859375 185.777344 229.328125 188.054688 229.328125 191.796875 " fill-opacity="1" fill-rule="nonzero"/><path fill="#ffffff" d="M 236.621094 192.597656 L 242.128906 192.597656 C 241.839844 191.09375 240.722656 190.355469 239.3125 190.355469 C 238.03125 190.355469 237.007812 191.1875 236.621094 192.597656 Z M 236.976562 195.863281 C 237.488281 197.015625 238.515625 197.71875 239.601562 197.875 C 241.746094 198.195312 243.375 197.171875 243.789062 196.660156 L 245.875 199.574219 C 243.921875 201.363281 242.195312 202.136719 239.3125 202.136719 C 235.121094 202.136719 231.566406 198.484375 231.566406 193.96875 C 231.566406 189.457031 235.121094 185.777344 239.3125 185.777344 C 243.539062 185.777344 246.769531 189.109375 246.769531 193.621094 C 246.769531 194.386719 246.734375 195.121094 246.609375 195.863281 L 236.976562 195.863281 " fill-opacity="1" fill-rule="nonzero"/><path fill="#ffffff" d="M 254.960938 202.136719 C 253.488281 202.136719 252.308594 200.949219 252.308594 199.476562 C 252.308594 198.039062 253.488281 196.851562 254.960938 196.851562 C 256.402344 196.851562 257.617188 198.039062 257.617188 199.476562 C 257.617188 200.949219 256.402344 202.136719 254.960938 202.136719 Z M 256.976562 193.8125 L 252.914062 193.8125 L 251.890625 179.246094 L 258 179.246094 L 256.976562 193.8125 " fill-opacity="1" fill-rule="nonzero"/><g clip-path="url(#e752e28f3a)"><path fill="#ffffff" d="M 252.78125 582.621094 C 248.285156 580.667969 230.898438 572.925781 210.195312 560.839844 C 182.496094 544.667969 160.1875 527.550781 143.898438 509.957031 L 143.863281 509.925781 C 143.164062 509.167969 142.488281 508.425781 141.832031 507.695312 L 141.820312 507.683594 C 141.132812 506.90625 140.464844 506.148438 139.824219 505.402344 L 131.183594 495.382812 L 285.921875 495.382812 C 286.238281 495.382812 286.558594 495.371094 286.90625 495.355469 L 286.988281 495.355469 C 287.28125 495.335938 287.574219 495.320312 287.90625 495.285156 L 288.027344 495.277344 C 288.308594 495.253906 288.601562 495.214844 288.898438 495.175781 L 289.039062 495.152344 C 289.328125 495.113281 289.613281 495.0625 289.894531 495.011719 L 290.035156 494.984375 C 290.308594 494.925781 290.597656 494.867188 290.878906 494.804688 L 290.996094 494.773438 C 291.289062 494.703125 291.570312 494.628906 291.828125 494.550781 L 291.929688 494.523438 C 292.230469 494.433594 292.519531 494.34375 292.777344 494.253906 L 292.855469 494.226562 C 293.4375 494.027344 294.023438 493.796875 294.585938 493.542969 L 294.636719 493.523438 C 294.882812 493.410156 295.160156 493.28125 295.4375 493.140625 L 295.535156 493.089844 C 295.78125 492.964844 296.035156 492.832031 296.28125 492.691406 L 296.398438 492.628906 C 296.625 492.5 296.871094 492.351562 297.125 492.195312 L 297.238281 492.128906 C 297.460938 491.984375 297.710938 491.824219 297.933594 491.667969 L 298.011719 491.613281 C 298.265625 491.4375 298.5 491.269531 298.726562 491.09375 L 298.792969 491.042969 C 299.035156 490.863281 299.265625 490.679688 299.480469 490.5 L 299.523438 490.464844 C 300 490.066406 300.472656 489.640625 300.898438 489.210938 L 300.945312 489.167969 C 301.140625 488.976562 301.339844 488.769531 301.550781 488.539062 L 301.625 488.460938 C 301.800781 488.273438 301.992188 488.054688 302.175781 487.828125 L 302.265625 487.722656 C 302.433594 487.527344 302.609375 487.300781 302.78125 487.078125 L 302.859375 486.980469 C 303.019531 486.769531 303.1875 486.542969 303.351562 486.3125 L 303.402344 486.238281 C 303.597656 485.957031 303.75 485.722656 303.902344 485.488281 L 303.949219 485.40625 C 304.125 485.132812 304.269531 484.886719 304.40625 484.648438 L 304.429688 484.617188 C 304.738281 484.066406 305.023438 483.507812 305.28125 482.945312 L 305.304688 482.890625 C 305.421875 482.632812 305.535156 482.367188 305.652344 482.074219 L 305.699219 481.976562 C 305.792969 481.734375 305.890625 481.476562 305.996094 481.175781 L 306.042969 481.054688 C 306.132812 480.789062 306.214844 480.519531 306.300781 480.246094 L 306.34375 480.105469 C 306.417969 479.84375 306.492188 479.5625 306.5625 479.292969 L 306.589844 479.164062 C 306.664062 478.875 306.726562 478.585938 306.78125 478.316406 L 306.804688 478.203125 C 306.867188 477.882812 306.917969 477.597656 306.957031 477.320312 L 306.960938 477.273438 C 307.019531 476.902344 307.058594 476.585938 307.089844 476.28125 C 307.125 475.933594 307.152344 475.582031 307.171875 475.226562 L 307.179688 474.980469 C 307.191406 474.640625 307.199219 474.359375 307.199219 474.101562 L 307.199219 286.1875 L 316.046875 295.886719 C 314.546875 283.433594 312.511719 270.777344 309.996094 258.207031 C 308.582031 251.730469 307.238281 248.632812 306.691406 247.550781 C 306.433594 247.371094 306.152344 247.179688 305.867188 246.976562 C 304.78125 246.222656 303.574219 245.386719 302.199219 244.40625 C 298.71875 241.929688 295.609375 239.574219 292.675781 237.199219 C 275.894531 223.578125 265.113281 209.199219 260.632812 194.449219 L 260.574219 194.222656 C 259.628906 190.621094 259.320312 186.921875 259.640625 183.230469 C 258.667969 172.191406 263.449219 162.761719 268.679688 158.28125 C 272.386719 155.101562 277.15625 153.347656 282.105469 153.347656 C 284.304688 153.347656 286.484375 153.691406 288.585938 154.367188 C 289.386719 154.585938 291.21875 155.191406 293.410156 156.609375 L 293.523438 156.675781 C 293.585938 156.722656 293.652344 156.761719 293.714844 156.800781 L 294.074219 157.035156 C 295.511719 157.957031 297.351562 159.101562 299.679688 160.542969 C 302.113281 162.046875 305.121094 163.886719 308.855469 166.15625 C 311.867188 167.988281 315.019531 169.890625 318.148438 171.785156 L 318.523438 172.015625 C 320.480469 173.195312 322.417969 174.371094 324.304688 175.511719 C 330.574219 178.78125 337.007812 181.710938 342.6875 184.292969 C 347.351562 186.417969 351.375 188.246094 354.269531 189.796875 L 355.042969 190.210938 C 355.71875 190.570312 356.363281 190.917969 356.988281 191.257812 L 367.824219 199.988281 C 368.160156 200.402344 368.503906 200.847656 368.847656 201.304688 L 370.863281 203.898438 L 370.820312 204.097656 C 371.089844 204.5 371.363281 204.917969 371.644531 205.347656 C 372.78125 207.109375 374 209.253906 375.261719 211.722656 C 380.363281 221.679688 384.871094 234.179688 385.0625 234.710938 L 385.136719 234.917969 L 385.386719 235.804688 C 387.730469 244.234375 390.355469 252.804688 393.175781 261.277344 C 403.558594 292.484375 416.851562 337.457031 421.25 374.519531 C 427.074219 408.921875 429.683594 439.164062 430.535156 450.601562 C 430.699219 452.519531 430.828125 454.394531 430.917969 456.175781 L 430.929688 456.347656 C 431.234375 462.335938 431.09375 466.410156 430.972656 470.011719 C 430.921875 471.574219 430.871094 473.046875 430.871094 474.472656 C 430.871094 474.574219 430.878906 474.671875 430.878906 474.765625 L 430.882812 474.96875 C 431.003906 478.035156 431.824219 481.394531 433.3125 484.941406 C 435.113281 489.105469 437.390625 492.394531 438.363281 493.792969 C 438.570312 494.09375 438.773438 494.386719 438.964844 494.703125 L 440.339844 496.5 L 439.875 499.007812 C 439.855469 499.101562 439.839844 499.191406 439.824219 499.289062 L 439.277344 501.84375 L 437.375 503.011719 C 437.046875 503.261719 436.714844 503.472656 436.394531 503.683594 C 435.890625 504.011719 435.160156 504.480469 434.226562 505.0625 C 432.683594 506.03125 430.546875 507.351562 427.882812 508.992188 C 423.960938 511.40625 419.929688 513.863281 418.789062 514.558594 L 413.894531 517.542969 L 413.761719 517.359375 C 386.359375 533.984375 339.183594 562.570312 306.007812 582.433594 L 306.007812 582.441406 L 303.058594 584.203125 C 292.382812 590.585938 284.015625 595.554688 278.203125 598.953125 L 274.484375 601.128906 L 252.78125 582.621094 " fill-opacity="1" fill-rule="nonzero"/></g><g clip-path="url(#3cfe08082a)"><path fill="#ffffff" d="M 254.890625 579.21875 C 246.988281 575.835938 184.945312 548.464844 146.796875 507.273438 L 146.753906 507.222656 C 146.078125 506.496094 145.414062 505.773438 144.78125 505.054688 L 144.753906 505.03125 C 144.09375 504.289062 143.4375 503.546875 142.8125 502.820312 L 139.8125 499.332031 L 285.921875 499.332031 C 286.292969 499.332031 286.675781 499.328125 287.078125 499.304688 L 287.15625 499.304688 C 287.519531 499.289062 287.878906 499.257812 288.265625 499.226562 L 288.398438 499.214844 C 288.738281 499.179688 289.089844 499.136719 289.449219 499.089844 L 289.597656 499.070312 C 289.9375 499.019531 290.289062 498.960938 290.625 498.894531 L 290.78125 498.867188 C 291.125 498.796875 291.460938 498.726562 291.789062 498.648438 L 291.933594 498.613281 C 292.28125 498.527344 292.625 498.4375 292.9375 498.34375 L 293.058594 498.308594 C 293.40625 498.207031 293.753906 498.097656 294.074219 497.988281 L 294.140625 497.96875 C 294.832031 497.726562 295.523438 497.457031 296.199219 497.152344 L 296.242188 497.136719 C 296.558594 496.996094 296.882812 496.835938 297.210938 496.675781 L 297.304688 496.628906 C 297.609375 496.472656 297.910156 496.308594 298.214844 496.140625 L 298.328125 496.078125 C 298.625 495.910156 298.917969 495.734375 299.203125 495.554688 L 299.328125 495.484375 C 299.613281 495.304688 299.898438 495.113281 300.171875 494.925781 L 300.261719 494.867188 C 300.5625 494.65625 300.84375 494.453125 301.109375 494.253906 L 301.199219 494.183594 C 301.480469 493.972656 301.761719 493.746094 302.019531 493.535156 L 302.074219 493.488281 C 302.621094 493.035156 303.171875 492.535156 303.6875 492.023438 L 303.722656 491.984375 C 303.957031 491.753906 304.199219 491.5 304.449219 491.222656 L 304.523438 491.144531 C 304.742188 490.902344 304.972656 490.644531 305.199219 490.382812 L 305.28125 490.28125 C 305.496094 490.027344 305.710938 489.761719 305.917969 489.492188 L 305.996094 489.386719 C 306.199219 489.117188 306.40625 488.839844 306.597656 488.566406 L 306.660156 488.480469 C 306.878906 488.160156 307.0625 487.886719 307.238281 487.605469 L 307.300781 487.511719 C 307.496094 487.195312 307.675781 486.898438 307.839844 486.609375 L 307.867188 486.558594 C 308.230469 485.925781 308.570312 485.261719 308.871094 484.59375 L 308.902344 484.542969 C 309.042969 484.234375 309.175781 483.914062 309.316406 483.558594 L 309.355469 483.464844 C 309.484375 483.15625 309.601562 482.839844 309.722656 482.492188 L 309.773438 482.355469 C 309.878906 482.042969 309.984375 481.710938 310.085938 481.378906 L 310.132812 481.238281 C 310.226562 480.902344 310.316406 480.566406 310.402344 480.246094 L 310.433594 480.105469 C 310.519531 479.75 310.597656 479.40625 310.660156 479.082031 L 310.6875 478.953125 C 310.753906 478.582031 310.816406 478.234375 310.867188 477.894531 L 310.878906 477.824219 C 310.941406 477.414062 310.984375 477.042969 311.023438 476.6875 C 311.0625 476.261719 311.097656 475.832031 311.121094 475.402344 L 311.132812 475.128906 C 311.148438 474.75 311.152344 474.410156 311.152344 474.101562 L 311.152344 296.386719 L 314.816406 300.402344 C 315.019531 300.621094 315.210938 300.828125 315.402344 301.039062 C 315.402344 301.039062 315.863281 301.527344 315.964844 301.632812 C 315.964844 301.632812 316.429688 302.109375 316.503906 302.183594 C 316.570312 302.25 316.800781 302.476562 316.800781 302.476562 C 316.875 302.550781 316.945312 302.621094 317.019531 302.695312 C 317.101562 302.773438 317.1875 302.847656 317.265625 302.925781 L 317.289062 302.949219 C 317.367188 303.019531 317.445312 303.09375 317.523438 303.167969 C 317.613281 303.246094 317.703125 303.332031 317.792969 303.410156 C 317.875 303.472656 317.945312 303.539062 318.019531 303.601562 C 318.109375 303.679688 318.203125 303.75 318.292969 303.832031 C 318.363281 303.886719 318.433594 303.941406 318.507812 304 C 318.597656 304.070312 318.6875 304.144531 318.785156 304.210938 C 318.84375 304.261719 318.914062 304.3125 318.984375 304.363281 C 319.074219 304.433594 319.171875 304.5 319.265625 304.5625 C 319.328125 304.605469 319.382812 304.644531 319.445312 304.683594 C 319.558594 304.757812 319.660156 304.824219 319.753906 304.886719 C 319.800781 304.914062 319.941406 304.992188 319.941406 304.992188 C 320.046875 305.054688 320.148438 305.117188 320.253906 305.171875 L 320.367188 305.234375 L 320.367188 298.785156 C 318.824219 285.136719 316.632812 271.210938 313.867188 257.398438 C 311.953125 248.632812 310.109375 245.480469 309.765625 244.949219 C 309.582031 244.765625 309.382812 244.605469 309.175781 244.464844 C 308.851562 244.234375 308.496094 243.988281 308.113281 243.726562 C 307.058594 242.984375 305.855469 242.15625 304.492188 241.183594 C 301.082031 238.761719 298.035156 236.449219 295.167969 234.125 C 279.011719 221.015625 268.664062 207.277344 264.421875 193.300781 L 264.398438 193.222656 C 263.539062 189.945312 263.273438 186.585938 263.613281 183.230469 C 262.632812 173.492188 266.871094 165.039062 271.253906 161.285156 C 274.246094 158.714844 278.101562 157.304688 282.105469 157.304688 C 283.925781 157.304688 285.730469 157.589844 287.46875 158.160156 C 287.828125 158.25 289.359375 158.699219 291.269531 159.929688 L 291.429688 160.03125 C 291.472656 160.058594 291.519531 160.085938 291.558594 160.113281 L 291.929688 160.351562 C 293.382812 161.289062 295.242188 162.453125 297.601562 163.90625 C 300.046875 165.417969 303.058594 167.257812 306.804688 169.53125 C 309.832031 171.375 313.007812 173.292969 316.148438 175.195312 C 318.25 176.472656 320.339844 177.738281 322.367188 178.960938 C 328.765625 182.300781 335.296875 185.273438 341.054688 187.890625 C 345.648438 189.984375 349.621094 191.789062 352.402344 193.285156 L 353.179688 193.699219 C 356.339844 195.386719 358.691406 196.652344 360.9375 198.527344 L 360.9375 197.542969 L 364.722656 202.4375 C 365.050781 202.84375 365.382812 203.265625 365.707031 203.703125 L 366.617188 204.878906 L 366.601562 204.9375 C 367.15625 205.71875 367.722656 206.5625 368.324219 207.496094 C 369.386719 209.148438 370.539062 211.175781 371.746094 213.523438 C 376.730469 223.261719 381.15625 235.523438 381.34375 236.046875 L 381.363281 236.113281 L 381.578125 236.871094 C 383.945312 245.351562 386.578125 253.984375 389.421875 262.523438 C 399.753906 293.59375 412.984375 338.332031 417.332031 375.082031 C 423.148438 409.382812 425.742188 439.539062 426.59375 450.917969 C 426.753906 452.792969 426.878906 454.644531 426.972656 456.386719 L 426.980469 456.546875 C 427.277344 462.371094 427.140625 466.359375 427.023438 469.875 C 426.96875 471.472656 426.917969 472.984375 426.917969 474.472656 C 426.917969 474.625 426.921875 474.777344 426.929688 474.929688 L 426.933594 475.109375 C 427.070312 478.652344 427.992188 482.492188 429.675781 486.5 C 431.632812 491.023438 434.070312 494.546875 435.109375 496.046875 C 435.339844 496.375 435.535156 496.65625 435.683594 496.917969 L 436.132812 497.507812 L 435.980469 498.332031 C 435.972656 498.378906 435.964844 498.429688 435.953125 498.472656 L 435.761719 499.367188 L 435.132812 499.753906 C 434.882812 499.949219 434.585938 500.148438 434.238281 500.371094 C 433.75 500.6875 433.035156 501.140625 432.125 501.714844 C 430.597656 502.671875 428.472656 503.984375 425.8125 505.625 C 421.28125 508.414062 416.703125 511.199219 416.660156 511.226562 L 414.984375 512.25 L 414.851562 512.070312 C 386.664062 529.179688 336.367188 559.664062 302.058594 580.199219 L 301.03125 580.808594 C 290.347656 587.199219 282 592.15625 276.207031 595.542969 L 274.910156 596.300781 C 274.910156 596.300781 257.105469 581.113281 254.890625 579.21875 " fill-opacity="1" fill-rule="nonzero"/></g><g clip-path="url(#f0ad7b16d8)"><path fill="#0d0d0d" d="M 427.730469 487.3125 C 426.222656 483.71875 424.992188 479.523438 424.828125 475.164062 C 424.820312 474.933594 424.8125 474.703125 424.8125 474.472656 C 424.8125 469.726562 425.304688 465.101562 424.871094 456.65625 C 424.789062 454.957031 424.664062 453.109375 424.492188 451.074219 C 423.601562 439.125 421.007812 409.382812 415.25 375.386719 C 411 339.46875 398.308594 295.917969 387.421875 263.1875 C 384.585938 254.667969 381.953125 246.089844 379.542969 237.433594 C 379.425781 236.996094 379.359375 236.761719 379.359375 236.761719 C 379.359375 236.761719 374.851562 224.210938 369.871094 214.484375 C 368.769531 212.351562 367.652344 210.34375 366.550781 208.640625 C 365.769531 207.429688 365.039062 206.359375 364.347656 205.410156 C 364.347656 205.40625 364.351562 205.394531 364.351562 205.394531 L 364.027344 204.976562 C 363.703125 204.546875 363.386719 204.136719 363.070312 203.746094 L 363.042969 203.71875 C 359.5 199.347656 356.65625 197.953125 351.410156 195.140625 C 345.277344 191.859375 332.976562 186.878906 321.328125 180.800781 C 316.253906 177.726562 310.777344 174.414062 305.710938 171.335938 C 302.382812 169.320312 299.238281 167.398438 296.496094 165.699219 C 294.28125 164.335938 292.332031 163.117188 290.777344 162.121094 C 290.652344 162.042969 290.527344 161.957031 290.410156 161.878906 C 290.359375 161.851562 290.308594 161.816406 290.257812 161.789062 C 290.214844 161.761719 290.167969 161.726562 290.125 161.699219 C 288.304688 160.523438 286.910156 160.195312 286.910156 160.195312 L 286.910156 160.199219 C 282.074219 158.582031 276.617188 159.464844 272.628906 162.886719 C 269.050781 165.949219 264.707031 173.808594 265.734375 183.230469 C 265.414062 186.164062 265.566406 189.363281 266.4375 192.6875 C 271.59375 209.6875 285.265625 223.375 296.496094 232.488281 C 299.890625 235.242188 303.0625 237.582031 305.710938 239.464844 C 307.558594 240.777344 309.148438 241.875 310.382812 242.734375 C 310.742188 242.984375 311.082031 243.273438 311.382812 243.582031 C 311.417969 243.625 313.636719 246.46875 315.929688 256.964844 C 318.699219 270.765625 320.894531 284.679688 322.472656 298.667969 L 322.472656 308.316406 C 321.785156 308.128906 321.144531 307.90625 320.542969 307.652344 C 320.515625 307.644531 320.492188 307.632812 320.46875 307.625 C 320.316406 307.5625 320.164062 307.488281 320.011719 307.414062 C 319.957031 307.386719 319.894531 307.363281 319.839844 307.335938 C 319.703125 307.269531 319.570312 307.203125 319.433594 307.128906 C 319.367188 307.09375 319.300781 307.054688 319.234375 307.023438 C 319.109375 306.949219 318.984375 306.882812 318.863281 306.808594 C 318.789062 306.765625 318.714844 306.71875 318.648438 306.671875 C 318.53125 306.601562 318.414062 306.527344 318.300781 306.453125 C 318.222656 306.402344 318.148438 306.355469 318.074219 306.304688 C 317.964844 306.222656 317.851562 306.144531 317.742188 306.066406 C 317.664062 306.011719 317.585938 305.953125 317.511719 305.898438 C 317.40625 305.820312 317.300781 305.734375 317.191406 305.652344 C 317.113281 305.589844 317.035156 305.527344 316.957031 305.460938 C 316.855469 305.375 316.753906 305.292969 316.652344 305.207031 C 316.570312 305.132812 316.484375 305.0625 316.40625 304.988281 C 316.304688 304.902344 316.203125 304.8125 316.109375 304.722656 C 316.019531 304.644531 315.933594 304.566406 315.851562 304.488281 C 315.753906 304.398438 315.652344 304.308594 315.558594 304.210938 C 315.46875 304.121094 315.378906 304.03125 315.28125 303.941406 C 315.191406 303.851562 315.097656 303.761719 315.007812 303.667969 C 314.90625 303.566406 314.804688 303.460938 314.703125 303.359375 C 314.613281 303.269531 314.53125 303.179688 314.441406 303.089844 C 314.324219 302.964844 314.199219 302.832031 314.074219 302.699219 C 314.007812 302.628906 313.933594 302.554688 313.863281 302.476562 C 313.664062 302.261719 313.460938 302.042969 313.261719 301.824219 L 313.261719 474.101562 C 313.261719 474.472656 313.25 474.84375 313.238281 475.214844 C 313.234375 475.3125 313.234375 475.410156 313.226562 475.507812 C 313.203125 475.972656 313.164062 476.441406 313.121094 476.894531 C 313.082031 477.304688 313.023438 477.714844 312.96875 478.121094 C 312.960938 478.148438 312.957031 478.175781 312.953125 478.203125 C 312.894531 478.59375 312.828125 478.980469 312.753906 479.363281 C 312.742188 479.40625 312.738281 479.453125 312.726562 479.496094 C 312.652344 479.867188 312.570312 480.234375 312.480469 480.597656 C 312.46875 480.65625 312.457031 480.703125 312.445312 480.753906 C 312.355469 481.113281 312.253906 481.476562 312.152344 481.835938 C 312.136719 481.886719 312.121094 481.9375 312.101562 481.984375 C 311.996094 482.347656 311.882812 482.695312 311.761719 483.046875 C 311.75 483.09375 311.730469 483.144531 311.710938 483.1875 C 311.585938 483.542969 311.457031 483.890625 311.316406 484.238281 C 311.304688 484.277344 311.289062 484.316406 311.273438 484.351562 C 311.132812 484.710938 310.980469 485.066406 310.816406 485.40625 C 310.8125 485.429688 310.800781 485.453125 310.789062 485.46875 C 310.457031 486.199219 310.09375 486.910156 309.699219 487.601562 C 309.691406 487.617188 309.683594 487.640625 309.671875 487.65625 C 309.480469 487.988281 309.28125 488.3125 309.082031 488.640625 C 309.058594 488.671875 309.042969 488.699219 309.019531 488.734375 C 308.820312 489.050781 308.613281 489.359375 308.402344 489.660156 C 308.378906 489.703125 308.351562 489.742188 308.320312 489.773438 C 308.113281 490.078125 307.894531 490.371094 307.675781 490.664062 C 307.640625 490.703125 307.613281 490.742188 307.585938 490.78125 C 307.363281 491.074219 307.132812 491.359375 306.894531 491.632812 C 306.867188 491.671875 306.839844 491.707031 306.8125 491.742188 C 306.570312 492.023438 306.328125 492.304688 306.074219 492.578125 C 306.050781 492.601562 306.023438 492.628906 306 492.65625 C 305.742188 492.9375 305.480469 493.214844 305.210938 493.484375 C 305.191406 493.496094 305.179688 493.503906 305.171875 493.515625 C 304.601562 494.078125 304.019531 494.613281 303.40625 495.125 C 303.390625 495.136719 303.378906 495.144531 303.359375 495.15625 C 303.070312 495.398438 302.769531 495.640625 302.46875 495.871094 C 302.441406 495.894531 302.40625 495.917969 302.378906 495.9375 C 302.082031 496.15625 301.78125 496.375 301.472656 496.589844 C 301.441406 496.613281 301.402344 496.640625 301.359375 496.667969 C 301.0625 496.875 300.753906 497.074219 300.441406 497.269531 C 300.398438 497.296875 300.359375 497.320312 300.316406 497.347656 C 300.007812 497.546875 299.6875 497.730469 299.367188 497.910156 C 299.328125 497.933594 299.289062 497.957031 299.242188 497.976562 C 298.921875 498.164062 298.589844 498.339844 298.261719 498.507812 C 298.226562 498.523438 298.191406 498.539062 298.152344 498.558594 C 297.808594 498.730469 297.46875 498.894531 297.113281 499.050781 C 297.097656 499.0625 297.074219 499.070312 297.058594 499.078125 C 296.328125 499.40625 295.578125 499.703125 294.816406 499.960938 C 294.792969 499.96875 294.769531 499.980469 294.75 499.984375 C 294.390625 500.113281 294.019531 500.226562 293.648438 500.332031 C 293.609375 500.347656 293.5625 500.359375 293.523438 500.371094 C 293.164062 500.480469 292.800781 500.574219 292.433594 500.664062 C 292.382812 500.675781 292.332031 500.6875 292.277344 500.699219 C 291.917969 500.789062 291.550781 500.867188 291.179688 500.933594 C 291.125 500.945312 291.070312 500.957031 291.019531 500.96875 C 290.648438 501.035156 290.277344 501.097656 289.898438 501.152344 C 289.847656 501.164062 289.792969 501.171875 289.742188 501.175781 C 289.359375 501.230469 288.984375 501.277344 288.597656 501.308594 C 288.550781 501.316406 288.507812 501.320312 288.457031 501.328125 C 288.0625 501.359375 287.667969 501.390625 287.269531 501.410156 C 287.242188 501.410156 287.207031 501.410156 287.175781 501.410156 C 286.765625 501.433594 286.34375 501.445312 285.921875 501.445312 L 144.414062 501.445312 C 145.042969 502.175781 145.679688 502.902344 146.324219 503.625 C 146.335938 503.632812 146.34375 503.640625 146.347656 503.648438 C 146.992188 504.367188 147.640625 505.082031 148.296875 505.789062 C 148.304688 505.792969 148.304688 505.800781 148.308594 505.800781 C 188.507812 549.234375 256 577.386719 256.015625 577.410156 L 275.140625 593.722656 C 281.304688 590.121094 289.90625 585.007812 299.949219 579 C 335.027344 558.011719 387.691406 526.089844 415.441406 509.25 C 415.519531 509.367188 415.5625 509.429688 415.5625 509.429688 C 415.5625 509.429688 434.003906 498.191406 433.882812 498.039062 C 434.007812 497.96875 430.445312 493.589844 427.730469 487.3125 " fill-opacity="1" fill-rule="nonzero"/></g></svg>